<svg width="28" height="25" viewBox="0 0 28 25" xmlns="http://www.w3.org/2000/svg" fill="currentColor">
  <path fill-rule="evenodd" d="M20.9428 1.75068L20.9428 11.4091L18.4137 3.31364L18.0533 2.07864C15.2764 2.29728 12.4866 2.29728 9.70964 2.07864L9.4201 3.29296L6.9501 12.2157L6.9501 1.79796C5.06183 1.54968 3.19579 1.15455 1.36896 0.61614C1.22754 0.572679 1.07789 0.563016 0.932045 0.587927C0.786204 0.612839 0.648246 0.671629 0.529266 0.759571C0.410286 0.847513 0.313605 0.96215 0.247 1.09426C0.180396 1.22638 0.145726 1.37228 0.145781 1.52023L0.145783 23.9748C0.143412 24.2433 0.247425 24.5019 0.435097 24.694C0.622769 24.8861 0.878844 24.9961 1.14737 25L8.23828 25C8.58218 25.0003 8.91738 24.8919 9.19596 24.6902C9.47455 24.4886 9.68226 24.2041 9.78942 23.8773L13.8519 11.4741L17.9883 23.8832C18.0961 24.2079 18.3034 24.4905 18.5807 24.6909C18.858 24.8913 19.1913 24.9995 19.5335 25L26.7219 25C26.9915 25 27.25 24.8929 27.4406 24.7023C27.6312 24.5117 27.7383 24.2532 27.7383 23.9836L27.7383 1.41682C27.738 1.26763 27.7025 1.12062 27.6347 0.987737C27.5668 0.854851 27.4686 0.739836 27.348 0.652037C27.2274 0.564238 27.0878 0.506131 26.9405 0.482438C26.7932 0.458746 26.6424 0.470136 26.5003 0.515682C24.6834 1.07354 22.825 1.4865 20.9428 1.75068V1.75068Z" clip-rule="evenodd" />
</svg>