<svg width="57" height="57" viewBox="0 0 57 57" fill="none" xmlns="http://www.w3.org/2000/svg">
<path d="M40.9688 6.23438C35.5671 6.23438 31.1719 10.6296 31.1719 16.0312C31.1719 21.4329 35.5671 25.8281 40.9688 25.8281C46.3704 25.8281 50.7656 21.4329 50.7656 16.0312C50.7656 10.6296 46.3704 6.23438 40.9688 6.23438ZM40.9688 24.0469C36.5495 24.0469 32.9531 20.4505 32.9531 16.0312C32.9531 11.612 36.5495 8.01562 40.9688 8.01562C45.388 8.01562 48.9844 11.612 48.9844 16.0312C48.9844 20.4505 45.388 24.0469 40.9688 24.0469Z" fill="#E63946" fill-opacity="0.8"/>
<path d="M53.6744 11.929C53.4535 11.2415 53.1792 10.5762 52.8559 9.94383L54.0244 7.67362L49.3273 2.97647L47.0571 4.14497C46.4247 3.82167 45.7594 3.54736 45.0719 3.32648L44.2899 0.890625H37.6467L36.8665 3.32559C36.179 3.54647 35.5137 3.82078 34.8813 4.14408L32.6111 2.97558L27.914 7.67273L29.0059 9.79688H3.5625C2.08941 9.79688 0.890625 10.9957 0.890625 12.4688V49.875C0.890625 51.3481 2.08941 52.5469 3.5625 52.5469H35.3445C36.3473 54.6496 38.4884 56.1094 40.9688 56.1094C44.4066 56.1094 47.2031 53.3128 47.2031 49.875C47.2031 46.7409 44.8759 44.1465 41.8594 43.7119V32.9531H40.0781V43.7119C37.0616 44.1465 34.7344 46.7409 34.7344 49.875C34.7344 50.1778 34.7638 50.4735 34.8056 50.7656H3.5625C3.07177 50.7656 2.67188 50.3657 2.67188 49.875V22.2656H29.0068L27.914 24.3889L32.6111 29.086L34.8813 27.9175C35.5137 28.2408 36.179 28.5151 36.8665 28.736L37.6476 31.1719H44.2908L45.071 28.7369C45.7585 28.516 46.4238 28.2417 47.0562 27.9184L49.3264 29.0869L54.0235 24.3898L52.855 22.1205C53.1783 21.489 53.4517 20.8237 53.6735 20.1353L56.1094 19.3524V12.7092L53.6744 11.929ZM40.9688 45.4219C43.4242 45.4219 45.4219 47.4195 45.4219 49.875C45.4219 52.3305 43.4242 54.3281 40.9688 54.3281C38.5133 54.3281 36.5156 52.3305 36.5156 49.875C36.5156 47.4195 38.5133 45.4219 40.9688 45.4219ZM2.67188 12.4688C2.67188 11.978 3.07177 11.5781 3.5625 11.5781H28.3922C28.3504 11.6957 28.3023 11.8097 28.264 11.929L25.8281 12.7101V19.3533L28.2631 20.1335C28.3014 20.2528 28.3504 20.3668 28.3913 20.4844H2.67188V12.4688ZM54.3281 18.0539L52.2298 18.7263L52.0998 19.1867C51.8513 20.0667 51.5057 20.9039 51.0729 21.676L50.8387 22.0937L51.8451 24.0487L48.9853 26.9085L47.0303 25.9029L46.6135 26.1363C45.8396 26.5691 45.0015 26.9156 44.1233 27.1632L43.6629 27.2932L42.9914 29.3906H38.947L38.2746 27.2923L37.8142 27.1623C36.936 26.9138 36.0979 26.5682 35.324 26.1354L34.9072 25.902L32.9522 26.9076L30.0924 24.0478L31.0988 22.0928L30.8646 21.6751C30.4318 20.903 30.0862 20.0649 29.8377 19.1858L29.7077 18.7254L27.6094 18.0539V14.0095L29.7077 13.3371L29.8377 12.8767C30.0862 11.9985 30.4318 11.1604 30.8646 10.3865L31.098 9.96966L30.0924 8.01473L32.9522 5.15494L34.9072 6.16045L35.324 5.92711C36.0979 5.49427 36.936 5.14781 37.8142 4.90022L38.2746 4.77019L38.9461 2.67188H42.9905L43.6629 4.77019L44.1233 4.90022C45.0015 5.1487 45.8396 5.49427 46.6135 5.92711L47.0303 6.16045L48.9853 5.15494L51.8451 8.01473L50.8395 9.96966L51.0729 10.3865C51.5057 11.1604 51.8522 11.9985 52.0998 12.8767L52.2298 13.3371L54.3281 14.0086V18.0539Z" fill="#E63946" fill-opacity="0.8"/>
<path d="M42.9281 13.0031L45.1992 16.0313L42.9281 19.0594L44.3531 20.1281L47.4258 16.0313L44.3531 11.9344L42.9281 13.0031Z" fill="#E63946" fill-opacity="0.8"/>
<path d="M37.5844 11.9344L34.5117 16.0313L37.5844 20.1281L39.0094 19.0594L36.7383 16.0313L39.0094 13.0031L37.5844 11.9344Z" fill="#E63946" fill-opacity="0.8"/>
<path d="M39.2097 22.142L40.9982 9.67277L42.7616 9.92571L40.9731 22.395L39.2097 22.142Z" fill="#E63946" fill-opacity="0.8"/>
<path d="M15.1406 13.3594H6.23438C5.25202 13.3594 4.45312 14.1583 4.45312 15.1406V16.9219C4.45312 17.9042 5.25202 18.7031 6.23438 18.7031H15.1406C16.123 18.7031 16.9219 17.9042 16.9219 16.9219V15.1406C16.9219 14.1583 16.123 13.3594 15.1406 13.3594ZM11.5781 15.1406V16.9219H9.79688V15.1406H11.5781ZM6.23438 15.1406H8.01562V16.9219H6.23438V15.1406ZM13.3594 16.9219V15.1406H15.1406L15.1415 16.9219H13.3594Z" fill="#E63946" fill-opacity="0.8"/>
<path d="M40.9688 52.5469C42.4418 52.5469 43.6406 51.3481 43.6406 49.875C43.6406 48.4019 42.4418 47.2031 40.9688 47.2031C39.4957 47.2031 38.2969 48.4019 38.2969 49.875C38.2969 51.3481 39.4957 52.5469 40.9688 52.5469ZM40.9688 48.9844C41.4595 48.9844 41.8594 49.3843 41.8594 49.875C41.8594 50.3657 41.4595 50.7656 40.9688 50.7656C40.478 50.7656 40.0781 50.3657 40.0781 49.875C40.0781 49.3843 40.478 48.9844 40.9688 48.9844Z" fill="#E63946" fill-opacity="0.8"/>
<path d="M52.5469 43.8045V40.6L48.9844 37.0375V30.2812H47.2031V37.775L50.7656 41.3375V43.8045C49.7316 44.1732 48.9844 45.1529 48.9844 46.3125C48.9844 47.7856 50.1832 48.9844 51.6562 48.9844C53.1293 48.9844 54.3281 47.7856 54.3281 46.3125C54.3281 45.1529 53.5809 44.1732 52.5469 43.8045ZM51.6562 47.2031C51.1655 47.2031 50.7656 46.8032 50.7656 46.3125C50.7656 45.8218 51.1655 45.4219 51.6562 45.4219C52.147 45.4219 52.5469 45.8218 52.5469 46.3125C52.5469 46.8032 52.147 47.2031 51.6562 47.2031Z" fill="#E63946" fill-opacity="0.8"/>
<path d="M34.7344 37.775V30.2812H32.9531V37.0375L29.3906 40.6V43.8045C28.3566 44.1732 27.6094 45.1529 27.6094 46.3125C27.6094 47.7856 28.8082 48.9844 30.2812 48.9844C31.7543 48.9844 32.9531 47.7856 32.9531 46.3125C32.9531 45.1529 32.2059 44.1732 31.1719 43.8045V41.3375L34.7344 37.775ZM30.2812 47.2031C29.7905 47.2031 29.3906 46.8032 29.3906 46.3125C29.3906 45.8218 29.7905 45.4219 30.2812 45.4219C30.772 45.4219 31.1719 45.8218 31.1719 46.3125C31.1719 46.8032 30.772 47.2031 30.2812 47.2031Z" fill="#E63946" fill-opacity="0.8"/>
<path d="M8.90625 25.8281H9.79688V24.0469H8.90625C7.43316 24.0469 6.23438 25.2457 6.23438 26.7188C6.23438 27.2095 5.83448 27.6094 5.34375 27.6094H4.45312V29.3906H5.34375C5.83448 29.3906 6.23438 29.7905 6.23438 30.2812C6.23438 31.7543 7.43316 32.9531 8.90625 32.9531H9.79688V31.1719H8.90625C8.41552 31.1719 8.01562 30.772 8.01562 30.2812C8.01562 29.5946 7.74755 28.9738 7.32094 28.5C7.74755 28.0262 8.01562 27.4054 8.01562 26.7188C8.01562 26.228 8.41552 25.8281 8.90625 25.8281Z" fill="#E63946" fill-opacity="0.8"/>
<path d="M11.5781 24.0469H22.2656V25.8281H11.5781V24.0469Z" fill="#E63946" fill-opacity="0.8"/>
<path d="M11.5781 27.6094H22.2656V29.3906H11.5781V27.6094Z" fill="#E63946" fill-opacity="0.8"/>
<path d="M20.4844 31.1719H22.2656V32.9531H20.4844V31.1719Z" fill="#E63946" fill-opacity="0.8"/>
<path d="M11.5781 31.1719H18.7031V32.9531H11.5781V31.1719Z" fill="#E63946" fill-opacity="0.8"/>
<path d="M24.0469 44.5312C24.0469 44.0405 24.4468 43.6406 24.9375 43.6406H25.8281V41.8594H24.9375C24.4468 41.8594 24.0469 41.4595 24.0469 40.9688C24.0469 39.4957 22.8481 38.2969 21.375 38.2969H20.4844V40.0781H21.375C21.8657 40.0781 22.2656 40.478 22.2656 40.9688C22.2656 41.6554 22.5337 42.2762 22.9603 42.75C22.5328 43.2238 22.2656 43.8446 22.2656 44.5312C22.2656 45.022 21.8657 45.4219 21.375 45.4219H20.4844V47.2031H21.375C22.8481 47.2031 24.0469 46.0043 24.0469 44.5312Z" fill="#E63946" fill-opacity="0.8"/>
<path d="M8.01562 45.4219H18.7031V47.2031H8.01562V45.4219Z" fill="#E63946" fill-opacity="0.8"/>
<path d="M11.5781 41.8594H18.7031V43.6406H11.5781V41.8594Z" fill="#E63946" fill-opacity="0.8"/>
<path d="M8.01562 41.8594H9.79688V43.6406H8.01562V41.8594Z" fill="#E63946" fill-opacity="0.8"/>
<path d="M8.01562 38.2969H18.7031V40.0781H8.01562V38.2969Z" fill="#E63946" fill-opacity="0.8"/>
<path d="M4.45312 34.7344H22.2656V36.5156H4.45312V34.7344Z" fill="#E63946" fill-opacity="0.8"/>
</svg>
