<svg width="20" height="20" viewBox="0 0 20 20" fill="currentColor" xmlns="http://www.w3.org/2000/svg">
<g clip-path="url(#clip0)">
<path d="M19.707 9.70706H14.9899V9.0405H16.2626C16.4244 9.0405 16.5555 8.90933 16.5555 8.74753C16.5555 8.58574 16.4244 8.45456 16.2626 8.45456H14.9899V7.78797H15.8735C16.2026 7.78797 16.5121 7.6598 16.7449 7.42703L18.6716 5.50024C18.7972 5.56278 18.9364 5.59606 19.0807 5.59606C19.3263 5.59606 19.5571 5.50044 19.7307 5.32684C19.9044 5.15321 20 4.92239 20 4.67685C20 4.4313 19.9044 4.20048 19.7307 4.02685C19.5572 3.85322 19.3263 3.75759 19.0807 3.75759C18.8352 3.75759 18.6044 3.85322 18.4307 4.02681C18.2571 4.20044 18.1615 4.43126 18.1615 4.67681C18.1615 4.82118 18.1948 4.96036 18.2573 5.08591L16.3305 7.0127C16.2085 7.13477 16.0461 7.20203 15.8734 7.20203H14.9898V6.55563C14.9898 5.70344 14.2965 5.01016 13.4444 5.01016H12.798V2.41662C13.1616 2.294 13.4242 1.94998 13.4242 1.54553C13.4242 1.03866 13.0118 0.626316 12.505 0.626316C11.9982 0.626316 11.5858 1.0387 11.5858 1.54553C11.5858 1.94998 11.8484 2.29397 12.212 2.41662V5.01013H11.5455V3.73744C11.5455 3.57564 11.4143 3.44447 11.2525 3.44447C11.0907 3.44447 10.9595 3.57564 10.9595 3.73744V5.01013H10.2929V0.293036C10.2929 0.13124 10.1618 6.86646e-05 9.99996 6.86646e-05C9.83817 6.86646e-05 9.70699 0.13124 9.70699 0.293036V5.01013H9.04043V3.73744C9.04043 3.57564 8.90926 3.44447 8.74747 3.44447C8.58567 3.44447 8.4545 3.57564 8.4545 3.73744V5.01013H7.78794V4.12658C7.78794 3.7974 7.65974 3.48791 7.42696 3.25517L5.49951 1.32772C5.66978 0.983932 5.61271 0.555262 5.32682 0.269325C4.96838 -0.0890716 4.38522 -0.0890325 4.02682 0.269325C3.66842 0.627722 3.66842 1.21088 4.02682 1.56932C4.20604 1.7485 4.44143 1.83811 4.67682 1.83811C4.81697 1.83811 4.9569 1.80557 5.08522 1.74201L7.01267 3.66951C7.13478 3.79158 7.202 3.95392 7.202 4.12658V5.01013H6.5556C6.42494 5.01013 6.29498 5.02653 6.16935 5.05884C6.01267 5.09915 5.91834 5.25888 5.95865 5.41559C5.99896 5.57231 6.15873 5.66665 6.31541 5.6263C6.39334 5.60626 6.47412 5.59606 6.55556 5.59606H13.4444C13.9735 5.59606 14.4039 6.02653 14.4039 6.55559V13.4444C14.4039 13.5258 14.3937 13.6065 14.3737 13.6844C14.3335 13.8411 14.4278 14.0008 14.5845 14.0411C14.609 14.0474 14.6335 14.0504 14.6577 14.0504C14.7882 14.0504 14.9072 13.9625 14.9412 13.8302C14.9735 13.7048 14.9898 13.5749 14.9898 13.4444V12.798H17.5833C17.7059 13.1616 18.05 13.4242 18.4544 13.4242C18.9613 13.4242 19.3736 13.0119 19.3736 12.505C19.3736 11.9981 18.9613 11.5858 18.4544 11.5858C18.05 11.5858 17.706 11.8485 17.5833 12.212H14.9898V11.5455H16.2625C16.4243 11.5455 16.5555 11.4143 16.5555 11.2525C16.5555 11.0907 16.4243 10.9595 16.2625 10.9595H14.9898V10.293H19.707C19.8688 10.293 19.9999 10.1618 19.9999 10C19.9999 9.83823 19.8688 9.70706 19.707 9.70706ZM18.845 4.44118C18.908 4.37821 18.9917 4.34357 19.0807 4.34357C19.1697 4.34357 19.2534 4.37821 19.3164 4.44118C19.3793 4.50415 19.414 4.58782 19.414 4.67685C19.414 4.76587 19.3793 4.84954 19.3164 4.91251C19.2534 4.97548 19.1697 5.01013 19.0807 5.01013C18.9917 5.01013 18.908 4.97548 18.845 4.91251C18.7821 4.84954 18.7474 4.76587 18.7474 4.67685C18.7474 4.58782 18.7821 4.50411 18.845 4.44118ZM4.91244 1.15502C4.78252 1.28491 4.57108 1.28495 4.44108 1.15499C4.31112 1.02503 4.31112 0.813581 4.44108 0.68366C4.50608 0.61866 4.59139 0.586199 4.67678 0.586199C4.76213 0.586199 4.84748 0.618699 4.91244 0.68366C5.0424 0.81362 5.0424 1.02506 4.91244 1.15502ZM12.505 1.87881C12.3212 1.87881 12.1717 1.72928 12.1717 1.54553C12.1717 1.36178 12.3212 1.21225 12.505 1.21225C12.6888 1.21225 12.8383 1.36178 12.8383 1.54553C12.8383 1.72928 12.6887 1.87881 12.505 1.87881ZM18.4545 12.1718C18.6382 12.1718 18.7877 12.3213 18.7877 12.5051C18.7877 12.6888 18.6382 12.8383 18.4545 12.8383C18.2707 12.8383 18.1212 12.6888 18.1212 12.5051C18.1211 12.3213 18.2707 12.1718 18.4545 12.1718Z" fill="#E63946" fill-opacity="0.8"/>
<path d="M15.9731 18.4308C15.6872 18.1448 15.2585 18.0878 14.9147 18.258L12.9873 16.3305C12.8652 16.2085 12.798 16.0461 12.798 15.8735V14.9899H13.4444C13.575 14.9899 13.7049 14.9735 13.8305 14.9412C13.9872 14.9009 14.0815 14.7412 14.0412 14.5844C14.0009 14.4278 13.8413 14.3334 13.6845 14.3737C13.6066 14.3938 13.5258 14.4039 13.4444 14.4039H6.55556C6.02646 14.4039 5.59603 13.9735 5.59603 13.4444V6.5556C5.59603 6.47416 5.60619 6.39337 5.62623 6.31552C5.66658 6.15884 5.57224 5.99912 5.41556 5.95877C5.25885 5.91841 5.09912 6.01275 5.05881 6.16943C5.02646 6.29498 5.0101 6.4249 5.0101 6.5556V7.202H2.41655C2.29394 6.83841 1.94991 6.57576 1.54546 6.57576C1.03859 6.57576 0.626247 6.9881 0.626247 7.49497C0.626247 8.00185 1.03863 8.41419 1.54546 8.41419C1.94991 8.41419 2.2939 8.15153 2.41655 7.78794H5.01006V8.45454H3.73737C3.57557 8.45454 3.4444 8.58571 3.4444 8.74751C3.4444 8.9093 3.57557 9.04047 3.73737 9.04047H5.01006V9.70704H0.292968C0.131171 9.70704 0 9.83821 0 10C0 10.1618 0.131171 10.293 0.292968 10.293H5.01006V10.9595H3.73737C3.57557 10.9595 3.4444 11.0907 3.4444 11.2525C3.4444 11.4143 3.57557 11.5455 3.73737 11.5455H5.01006V12.2121H4.12647C3.79729 12.2121 3.4878 12.3402 3.25507 12.573L1.32828 14.4998C1.20273 14.4373 1.06355 14.404 0.919176 14.404C0.67363 14.404 0.442811 14.4996 0.269179 14.6732C0.0956246 14.8468 0 15.0777 0 15.3232C0 15.5687 0.0956246 15.7996 0.269257 15.9732C0.44285 16.1468 0.673708 16.2424 0.919254 16.2424C1.1648 16.2424 1.39562 16.1468 1.56925 15.9732C1.74288 15.7996 1.83851 15.5687 1.83851 15.3232C1.83851 15.1788 1.80523 15.0396 1.74269 14.9141L3.66948 12.9873C3.79155 12.8652 3.95389 12.798 4.12658 12.798H5.01018V13.4444C5.01018 14.2966 5.70349 14.9898 6.55564 14.9898H7.20204V17.5833C6.83845 17.706 6.57579 18.05 6.57579 18.4544C6.57579 18.9613 6.98818 19.3736 7.49501 19.3736C8.00184 19.3736 8.41422 18.9613 8.41422 18.4544C8.41422 18.05 8.15157 17.706 7.78798 17.5833V14.9898H8.45454V16.2625C8.45454 16.4243 8.58571 16.5555 8.7475 16.5555C8.9093 16.5555 9.04047 16.4243 9.04047 16.2625V14.9898H9.70699V19.707C9.70699 19.8688 9.83816 20 9.99996 20C10.1618 20 10.2929 19.8688 10.2929 19.707V14.9899H10.9595V16.2626C10.9595 16.4244 11.0907 16.5556 11.2525 16.5556C11.4143 16.5556 11.5454 16.4244 11.5454 16.2626V14.9899H12.212V15.8735C12.212 16.2026 12.3402 16.5121 12.573 16.7449L14.5004 18.6723C14.3301 19.0161 14.3872 19.4448 14.6731 19.7307C14.8523 19.9099 15.0878 19.9995 15.3231 19.9995C15.5585 19.9995 15.794 19.9099 15.9731 19.7307C16.3315 19.3723 16.3315 18.7892 15.9731 18.4308ZM1.54546 7.82825C1.36167 7.82825 1.21218 7.67872 1.21218 7.49497C1.21218 7.31118 1.36171 7.16169 1.54546 7.16169C1.72921 7.16169 1.87874 7.31122 1.87874 7.49497C1.87878 7.67876 1.72925 7.82825 1.54546 7.82825ZM1.15488 15.5589C1.09191 15.6218 1.00824 15.6565 0.919215 15.6565C0.830192 15.6565 0.74652 15.6218 0.683552 15.5589C0.620583 15.4959 0.585935 15.4122 0.585935 15.3232C0.585935 15.2342 0.620583 15.1505 0.683552 15.0875C0.74652 15.0246 0.830192 14.9899 0.919215 14.9899C1.00824 14.9899 1.09191 15.0246 1.15488 15.0875C1.21785 15.1505 1.25249 15.2342 1.25249 15.3232C1.25249 15.4122 1.21785 15.4959 1.15488 15.5589ZM7.82821 18.4545C7.82821 18.6383 7.67872 18.7878 7.49493 18.7878C7.31114 18.7878 7.16165 18.6383 7.16165 18.4545C7.16165 18.2708 7.31118 18.1212 7.49493 18.1212C7.67868 18.1212 7.82821 18.2708 7.82821 18.4545ZM15.5588 19.3164C15.4289 19.4464 15.2174 19.4463 15.0875 19.3164C14.9575 19.1865 14.9575 18.975 15.0875 18.8451C15.1525 18.7801 15.2378 18.7476 15.3232 18.7476C15.4085 18.7476 15.4939 18.7801 15.5588 18.8451C15.6888 18.975 15.6888 19.1865 15.5588 19.3164Z" fill="#E63946" fill-opacity="0.8"/>
<path d="M13.1111 9.21723C13.1111 8.59067 12.6528 8.05993 12.0254 7.88747C12.044 7.81087 12.0543 7.73208 12.0543 7.65158C12.0543 7.05838 11.5278 6.57576 10.8807 6.57576C10.5301 6.57576 10.2152 6.71752 10 6.94158C9.78477 6.71752 9.46985 6.57576 9.11934 6.57576C8.47219 6.57576 7.94571 7.05838 7.94571 7.65158C7.94571 7.73208 7.95602 7.81087 7.97458 7.88747C7.3472 8.05989 6.88892 8.59063 6.88892 9.21723C6.88892 9.52344 6.99728 9.81235 7.19747 10.0509C7.00173 10.3043 6.88892 10.612 6.88892 10.9395C6.88884 11.4376 7.15501 11.9027 7.59341 12.1912C7.59341 12.1914 7.59341 12.1917 7.59341 12.1919C7.59341 12.8714 8.19891 13.4243 8.94321 13.4243C9.37094 13.4243 9.75254 13.2415 10 12.9572C10.2475 13.2415 10.6291 13.4243 11.0568 13.4243C11.7731 13.4243 12.3605 12.9122 12.4037 12.268C12.8388 12.0155 13.1111 11.5734 13.1111 11.096C13.1111 10.7448 12.9614 10.4098 12.7037 10.1566C12.9613 9.9034 13.1111 9.56837 13.1111 9.21723ZM12.0742 10.4157C12.3565 10.5647 12.525 10.819 12.525 11.096C12.525 11.3025 12.4291 11.4995 12.2669 11.6468C12.1129 11.3616 11.8407 11.1346 11.4968 11.0265C11.3425 10.978 11.178 11.0639 11.1294 11.2182C11.0809 11.3726 11.1668 11.537 11.3211 11.5855C11.6198 11.6794 11.8205 11.9231 11.8205 12.1919C11.8205 12.5484 11.4778 12.8384 11.0566 12.8384C10.6355 12.8384 10.2928 12.5484 10.2928 12.1919V10.3132C10.2928 9.95672 10.6355 9.66676 11.0566 9.66676C11.2184 9.66676 11.3496 9.53559 11.3496 9.3738C11.3496 9.212 11.2184 9.08083 11.0566 9.08083C10.7733 9.08083 10.5102 9.16114 10.2928 9.2979V8.92368C10.2928 8.76188 10.1616 8.63071 9.99984 8.63071C9.83805 8.63071 9.70688 8.76188 9.70688 8.92368V10.5501C9.60828 10.4882 9.50016 10.437 9.3832 10.4003C9.22875 10.3518 9.06438 10.4376 9.0159 10.5919C8.96739 10.7463 9.05321 10.9107 9.20754 10.9593C9.50621 11.0531 9.70688 11.2968 9.70688 11.5657V12.1919C9.70688 12.5484 9.36422 12.8384 8.94305 12.8384C8.52184 12.8384 8.17919 12.5484 8.17919 12.1919C8.17919 12.0391 8.24395 11.8906 8.36153 11.7737C8.47629 11.6597 8.47684 11.4742 8.36278 11.3594C8.24872 11.2446 8.06325 11.2441 7.94848 11.3582C7.87829 11.428 7.81786 11.5042 7.76763 11.5853C7.58263 11.4103 7.47462 11.18 7.47462 10.9394C7.47462 10.5053 7.81528 10.124 8.30305 10.0121C8.46075 9.9759 8.55926 9.81872 8.52309 9.66102C8.48692 9.50329 8.32969 9.40481 8.17204 9.44098C7.97567 9.48602 7.79489 9.56122 7.63458 9.65993C7.53063 9.52938 7.47466 9.37649 7.47466 9.21716C7.47478 8.77649 7.89251 8.41775 8.40747 8.41435C8.41008 8.41442 8.4127 8.41478 8.41528 8.41478C8.48215 8.41478 8.54938 8.392 8.60442 8.3454C8.71672 8.25032 8.73926 8.089 8.66387 7.96763C8.66165 7.96404 8.65961 7.96036 8.65727 7.95689C8.65606 7.95513 8.65461 7.95345 8.65336 7.95169C8.64883 7.94532 8.64418 7.93908 8.63915 7.93306C8.63899 7.93286 8.63887 7.93267 8.63872 7.93251C8.58985 7.87474 8.53153 7.77911 8.53153 7.65154C8.53153 7.38142 8.7952 7.16166 9.11922 7.16166C9.44324 7.16166 9.70691 7.38142 9.70691 7.65154C9.70691 7.81333 9.83809 7.9445 9.99988 7.9445C10.1617 7.9445 10.2928 7.81333 10.2928 7.65154C10.2928 7.38142 10.5565 7.16166 10.8805 7.16166C11.2046 7.16166 11.4682 7.38142 11.4682 7.65154C11.4682 7.72372 11.4493 7.78529 11.4243 7.83591C11.2577 7.85165 11.0965 7.89193 10.9435 7.95646C10.7944 8.01931 10.7245 8.19114 10.7873 8.34025C10.8502 8.48931 11.022 8.55927 11.1711 8.49638C11.2978 8.44298 11.434 8.41552 11.5761 8.41442C11.5789 8.4145 11.5817 8.41478 11.5845 8.41478C11.5871 8.41478 11.5897 8.41442 11.5923 8.41435C12.1073 8.41771 12.525 8.77649 12.525 9.21716C12.525 9.49415 12.3565 9.74844 12.0742 9.89747C11.9781 9.94817 11.918 10.0479 11.918 10.1566C11.918 10.2652 11.9781 10.365 12.0742 10.4157Z" fill="#E63946" fill-opacity="0.8"/>
</g>
<defs>
<clipPath id="clip0">
<rect width="20" height="20" fill="white"/>
</clipPath>
</defs>
</svg>
