<svg width="20" height="22" viewBox="0 0 20 22" fill="currentColor" xmlns="http://www.w3.org/2000/svg">
<path d="M18 0.317383H2C0.9 0.317383 0 1.26976 0 2.43379V19.365C0 20.529 0.9 21.4814 2 21.4814H18C19.1 21.4814 20 20.529 20 19.365V2.43379C20 1.26976 19.1 0.317383 18 0.317383ZM6 18.3068H3V8.78299H6V18.3068ZM4.5 6.98405C3.5 6.98405 2.7 6.13749 2.7 5.07929C2.7 4.02109 3.5 3.17453 4.5 3.17453C5.5 3.17453 6.3 4.02109 6.3 5.07929C6.3 6.13749 5.5 6.98405 4.5 6.98405ZM17 18.3068H14V12.6983C14 11.8518 13.3 11.111 12.5 11.111C11.7 11.111 11 11.8518 11 12.6983V18.3068H8V8.78299H11V10.0528C11.5 9.20627 12.6 8.57135 13.5 8.57135C15.4 8.57135 17 10.2645 17 12.2751V18.3068Z" fill="black"/>
</svg>
