<svg width="24" height="25" viewBox="0 0 24 25" fill="currentColor" xmlns="http://www.w3.org/2000/svg">
  <g clip-path="url(#clip0)">
    <path d="M3.94682 0H20.0459C21.8506 0 23.3188 1.6209 23.3188 3.61328C23.3188 5.60566 21.8506 7.22656 20.0459 7.22656H3.94682C2.14212 7.22656 0.67392 5.60566 0.67392 3.61328C0.67392 1.6209 2.14212 0 3.94682 0ZM3.94682 5.27344H20.0459C20.8751 5.27344 21.5497 4.52871 21.5497 3.61328C21.5497 2.69785 20.8751 1.95312 20.0459 1.95312H3.94682C3.11763 1.95312 2.44305 2.69785 2.44305 3.61328C2.44305 4.52871 3.11763 5.27344 3.94682 5.27344Z" fill="currentColor" />
    <path d="M3.94682 8.88672H20.0459C21.8506 8.88672 23.3188 10.5076 23.3188 12.5C23.3188 14.4924 21.8506 16.1133 20.0459 16.1133H3.94682C2.14212 16.1133 0.67392 14.4924 0.67392 12.5C0.67392 10.5076 2.14212 8.88672 3.94682 8.88672ZM3.94682 14.1602H20.0459C20.8751 14.1602 21.5497 13.4154 21.5497 12.5C21.5497 11.5846 20.8751 10.8398 20.0459 10.8398H3.94682C3.11763 10.8398 2.44305 11.5846 2.44305 12.5C2.44305 13.4154 3.11763 14.1602 3.94682 14.1602Z" fill="currentColor" />
    <path d="M3.94682 17.7734H20.0459C21.8506 17.7734 23.3188 19.3943 23.3188 21.3867C23.3188 23.3791 21.8506 25 20.0459 25H8.36966C7.88111 25 7.48509 24.5628 7.48509 24.0234C7.48509 23.4841 7.88111 23.0469 8.36966 23.0469H20.0459C20.8751 23.0469 21.5497 22.3021 21.5497 21.3867C21.5497 20.4713 20.8751 19.7266 20.0459 19.7266H3.94682C3.11763 19.7266 2.44305 20.4713 2.44305 21.3867C2.44305 22.3021 3.11763 23.0469 3.94682 23.0469C4.43537 23.0469 4.83139 23.4841 4.83139 24.0234C4.83139 24.5628 4.43537 25 3.94682 25C2.14212 25 0.67392 23.3791 0.67392 21.3867C0.67392 19.3943 2.14212 17.7734 3.94682 17.7734Z" fill="currentColor" />
  </g>
  <defs>
    <clipPath id="clip0">
      <rect width="22.6449" height="25" fill="white" transform="matrix(-1 0 0 1 23.3188 0)" />
    </clipPath>
  </defs>
</svg>
