<svg width="310" height="213" viewBox="0 0 310 213" fill="none" xmlns="http://www.w3.org/2000/svg">
<path id="signature" d="M100.142 24.8128C100.142 34.4384 98.0603 45.088 93.896 56.7616C95.6709 60.5845 97.9579 62.496 100.757 62.496C100.415 63.8613 99.2891 64.544 97.3776 64.544C95.4661 64.544 93.6571 63.6224 91.9504 61.7792C89.1515 68.5376 85.9088 73.9989 82.2224 78.1632C78.6043 82.2592 74.7813 84.3072 70.7536 84.3072C65.4971 84.3072 61.7765 81.0304 59.592 74.4768C53.5845 82.3275 47.7477 86.2528 42.0816 86.2528C33.4117 86.2528 29.0768 81.6789 29.0768 72.5312C29.0768 65.7728 31.3637 56.7616 35.9376 45.4976C37.576 41.4016 39.112 36.7936 40.5456 31.6736C41.9792 26.4853 42.696 21.7067 42.696 17.3376C42.696 12.9685 41.4331 9.4528 38.9072 6.79041C36.3813 4.128 32.8997 2.7968 28.4624 2.7968C21.6357 2.7968 16.072 6.2784 11.7712 13.2416C8.42613 18.7712 6.7536 24.608 6.7536 30.752C6.7536 38.5344 9.04053 43.4837 13.6144 45.6C14.9797 46.2144 16.4475 46.5216 18.0176 46.5216C23.2741 46.5216 27.2677 43.5861 29.9984 37.7152C30.1349 37.4421 30.3397 37.3056 30.6128 37.3056C30.9541 37.2373 31.2272 37.3056 31.432 37.5104C31.7051 37.7152 31.7733 37.9541 31.6368 38.2272C30.3397 41.4357 28.5307 44.0299 26.2096 46.0096C23.8885 47.9211 21.1579 48.8768 18.0176 48.8768C11.8736 48.8768 7.70933 45.7707 5.5248 39.5584C4.63733 36.896 4.1936 33.8923 4.1936 30.5472C4.1936 27.2021 4.9104 23.4475 6.344 19.2832C9.0064 11.4325 13.2731 5.90294 19.144 2.6944C22.0795 1.12427 25.1856 0.339203 28.4624 0.339203C34.7429 0.339203 39.5557 2.4896 42.9008 6.79041C46.2459 11.0229 47.9184 16.6549 47.9184 23.6864C47.9184 28.8064 46.8944 34.7456 44.8464 41.504C42.7984 48.2624 40.7504 54.7477 38.7024 60.96C36.6544 67.1723 35.6304 71.8485 35.6304 74.9888C35.6304 78.1291 36.0741 80.3819 36.9616 81.7472C37.9173 83.0443 39.5899 83.6928 41.9792 83.6928C47.3723 83.6928 52.936 79.5285 58.6704 71.2C58.1243 67.5819 57.8512 64.1003 57.8512 60.7552C57.8512 49.8325 59.6944 40.48 63.3808 32.6976C66.0432 27.2363 68.8763 24.5056 71.88 24.5056C74.5424 24.5056 75.8736 26.8608 75.8736 31.5712C75.8736 36.2816 74.7813 41.9477 72.5968 48.5696C70.4123 55.1915 67.5792 61.5061 64.0976 67.5136C64.9168 76.8661 67.5109 81.5424 71.88 81.5424C78.4336 81.5424 84.5093 74.1696 90.1072 59.424C86.9669 54.1675 85.3968 46.7264 85.3968 37.1008C85.3968 31.4347 86.1136 26.2464 87.5472 21.536C89.3221 15.5968 91.848 12.6272 95.1248 12.6272C98.4699 12.6272 100.142 16.6891 100.142 24.8128ZM97.48 24.096C97.48 18.6347 96.5584 15.904 94.7152 15.904C93.3499 15.904 92.2576 17.8837 91.4384 21.8432C90.6875 25.7344 90.312 29.0795 90.312 31.8784C90.312 40.8896 90.9947 47.8528 92.36 52.768C95.7733 41.6405 97.48 32.0832 97.48 24.096ZM63.7904 61.472C63.7904 61.8133 63.7904 62.1205 63.7904 62.3936C66.4528 57.2736 68.6715 51.9488 70.4464 46.4192C72.3579 40.4117 73.3136 35.9061 73.3136 32.9024C73.3136 29.8304 72.6651 28.1237 71.368 27.7824C69.5931 27.7824 67.8864 31.5712 66.248 39.1488C64.6096 46.6581 63.7904 54.0992 63.7904 61.472ZM122.582 22.6624C124.152 22.6624 124.937 23.7205 124.937 25.8368C124.937 27.9531 123.913 29.6597 121.865 30.9568C120.841 31.6395 119.954 31.9808 119.203 31.9808C118.11 31.9808 117.462 31.6395 117.257 30.9568L117.155 30.6496C117.769 30.6496 118.213 30.0011 118.486 28.704C118.759 27.3387 119.168 26.0075 119.715 24.7104C120.329 23.3451 121.285 22.6624 122.582 22.6624ZM116.028 81.5424C117.803 81.5424 120.295 79.1872 123.503 74.4768C126.712 69.7664 129.477 65.056 131.798 60.3456L135.279 53.28H138.044C137.635 54.0992 137.088 55.2256 136.406 56.6592C135.791 58.0245 134.528 60.5163 132.617 64.1344C130.706 67.6843 128.862 70.8245 127.087 73.5552C125.381 76.2859 123.435 78.7776 121.251 81.0304C119.134 83.2149 117.291 84.3072 115.721 84.3072C110.669 84.3072 108.143 81.0304 108.143 74.4768C108.143 69.5616 109.543 61.5744 112.342 50.5152C112.615 49.3547 112.82 48.4672 112.956 47.8528C113.161 47.2384 113.366 46.4533 113.571 45.4976C113.775 44.4736 113.98 43.552 114.185 42.7328C114.526 41.2992 115.141 40.5824 116.028 40.5824C117.257 40.5824 118.144 41.4699 118.691 43.2448C118.964 44.064 119.1 45.0539 119.1 46.2144C119.1 47.3749 118.964 48.6037 118.691 49.9008C118.418 51.1296 117.974 52.9728 117.359 55.4304C116.745 57.888 116.267 59.9019 115.926 61.472C115.584 63.0421 115.209 64.9536 114.799 67.2064C114.048 70.9611 113.673 74.3061 113.673 77.2416C113.673 80.1088 114.458 81.5424 116.028 81.5424ZM157.551 19.7952C160.008 13.3781 161.237 9.00907 161.237 6.688C161.237 4.36694 160.657 3.13814 159.496 3.0016C156.288 3.0016 152.943 8.15574 149.461 18.464C146.048 28.704 143.351 39.3536 141.371 50.4128C139.46 61.4037 138.504 69.1861 138.504 73.76C138.504 81.4741 140.416 85.3312 144.239 85.3312C144.239 85.8091 143.931 86.2869 143.317 86.7648C142.703 87.2427 141.986 87.4816 141.167 87.4816C135.569 87.4816 132.77 82.464 132.77 72.4288C132.77 68.7424 133.452 63.1104 134.818 55.5328C136.183 47.8869 137.958 39.8997 140.143 31.5712C142.327 23.2427 145.16 16.0064 148.642 9.8624C152.123 3.65013 155.673 0.543999 159.291 0.543999C162.159 0.543999 163.592 2.35307 163.592 5.9712C163.592 8.70187 162.739 12.5248 161.032 17.44C157.755 26.9973 153.045 36.5547 146.901 46.112C145.263 48.6379 143.795 50.6859 142.498 52.256C142.156 52.6656 141.986 52.5291 141.986 51.8464C141.918 50.5493 142.225 49.4229 142.907 48.4672C148.505 40.0704 153.386 30.5131 157.551 19.7952ZM157.839 84C155.928 84 154.972 82.5323 154.972 79.5968C154.972 78.0267 156.883 66.592 160.706 45.2928C160.911 43.8592 161.525 43.1424 162.549 43.1424C163.778 43.1424 164.7 44.0299 165.314 45.8048C165.656 46.7605 165.826 47.8187 165.826 48.9792C165.826 50.0715 165.69 51.2661 165.417 52.5632L163.881 60.3456H164.495C170.502 46.8288 176.305 40.0704 181.903 40.0704C183.814 40.0704 185.316 40.7531 186.409 42.1184C187.569 43.4837 188.149 45.1221 188.149 47.0336C188.149 50.5835 187.603 55.0208 186.511 60.3456H186.921C192.723 47.7163 198.424 41.4016 204.021 41.4016C205.865 41.4016 207.366 42.0843 208.527 43.4496C209.688 44.8149 210.268 46.624 210.268 48.8768C210.268 51.1296 209.38 55.9083 207.605 63.2128C205.899 70.5173 205.045 75.6715 205.045 78.6752C205.045 83.1125 205.865 85.3312 207.503 85.3312C207.503 85.8091 207.196 86.2869 206.581 86.7648C205.967 87.2427 205.25 87.4816 204.431 87.4816C200.472 87.4816 198.492 84.3755 198.492 78.1632C198.492 74.272 199.482 68.6741 201.461 61.3696C203.441 53.9968 204.431 49.2864 204.431 47.2384C204.431 45.1221 203.748 44.064 202.383 44.064C199.857 44.064 196.888 47.136 193.474 53.28C190.129 59.3557 187.433 65.1925 185.385 70.7904C183.405 76.3883 182.244 80.0064 181.903 81.6448C181.562 83.2149 180.947 84 180.06 84C178.148 84 177.193 82.5323 177.193 79.5968C177.193 78.5045 177.773 74.6475 178.933 68.0256C181.186 55.8741 182.313 48.6379 182.313 46.3168C182.313 43.9275 181.63 42.7328 180.265 42.7328C178.421 42.7328 176.271 44.6443 173.813 48.4672C171.356 52.2219 169.137 56.5909 167.157 61.5744C162.857 72.0875 160.331 78.88 159.58 81.952C159.307 83.3173 158.726 84 157.839 84ZM225.06 69.0496C225.06 77.3099 227.995 81.44 233.866 81.44C236.051 81.44 238.338 80.4843 240.727 78.5728C243.185 76.5931 245.403 74.2379 247.383 71.5072C251.752 65.2267 254.824 60.1067 256.599 56.1472L257.93 53.28H260.695C259.535 56.0107 257.828 59.3899 255.575 63.4176C253.322 67.3771 251.172 70.7221 249.124 73.4528C247.076 76.1835 244.653 78.6752 241.854 80.928C239.055 83.1125 236.392 84.2048 233.866 84.2048C223.763 84.2048 218.711 78.5387 218.711 67.2064C218.711 61.9499 220.247 56.6933 223.319 51.4368C227.552 44.1323 232.774 40.48 238.986 40.48C243.355 40.48 245.54 42.8693 245.54 47.648C245.54 51.1979 244.175 54.8843 241.444 58.7072C237.621 63.8955 233.15 66.5237 228.03 66.592C227.279 66.592 226.801 66.2507 226.596 65.568L226.494 65.1584C230.043 65.1584 233.423 62.8373 236.631 58.1952C239.908 53.4848 241.546 49.5595 241.546 46.4192C241.546 44.3029 240.727 43.2448 239.089 43.2448C235.471 43.2448 232.091 46.4192 228.951 52.768C226.357 58.1611 225.06 63.5883 225.06 69.0496ZM256.441 84C254.53 84 253.574 82.5323 253.574 79.5968C253.574 78.0267 255.486 66.592 259.309 45.2928C259.582 43.8592 260.196 43.1424 261.152 43.1424C262.381 43.1424 263.302 44.0299 263.917 45.8048C264.258 46.7605 264.429 47.8187 264.429 48.9792C264.429 50.0715 264.292 51.2661 264.019 52.5632L262.381 60.96H262.893C268.764 47.3067 274.157 40.48 279.072 40.48C281.802 40.48 283.612 41.8112 284.499 44.4736C284.84 45.4976 285.011 46.6923 285.011 48.0576C285.011 49.3547 284.636 50.7883 283.885 52.3584C282.588 55.0208 280.642 56.352 278.048 56.352C277.502 56.352 277.058 56.2155 276.717 55.9424C276.444 55.6693 276.273 55.2939 276.205 54.816C276.751 54.816 277.468 53.8261 278.355 51.8464C279.242 49.7984 279.754 47.9211 279.891 46.2144C280.028 44.5077 279.447 43.5179 278.15 43.2448C275.761 43.2448 272.928 46.3509 269.651 52.5632C266.374 58.7755 263.746 64.7147 261.766 70.3808C259.786 76.0469 258.626 79.7333 258.285 81.44C257.943 83.1467 257.329 84 256.441 84ZM31.6368 90.4064C26.4485 90.4064 21.7723 91.6352 17.608 94.0928C9.89387 98.7349 5.35413 106.039 3.9888 116.006C3.784 117.577 3.6816 119.488 3.6816 121.741C3.6816 123.994 4.0912 126.519 4.9104 129.318C6.07093 133.483 8.35787 137.237 11.7712 140.582C15.1163 143.927 19.3147 146.214 24.3664 147.443C26.4827 139.661 29.6912 132.39 33.992 125.632C38.2928 118.805 43.72 113.139 50.2736 108.634C56.8272 104.06 63.7221 101.773 70.9584 101.773C77.2389 101.773 81.0619 104.299 82.4272 109.35C82.8368 110.647 83.0416 112.013 83.0416 113.446C83.0416 117.611 81.4715 122.219 78.3312 127.27C73.416 135.394 66.248 141.572 56.8272 145.805C49.4544 149.15 41.5013 150.822 32.968 150.822H30.92C29.4864 155.874 28.7696 160.755 28.7696 165.466C28.7696 174.34 31.0224 180.484 35.528 183.898C36.1424 178.3 37.576 173.043 39.8288 168.128C42.0816 163.213 45.1877 159.083 49.1472 155.738C53.1749 152.393 57.6123 150.72 62.4592 150.72C68.0571 150.72 71.5387 153.212 72.904 158.195C73.2453 159.561 73.416 160.96 73.416 162.394C73.416 166.148 72.2213 170.176 69.832 174.477C66.0773 181.099 60.8549 185.604 54.1648 187.994C49.3179 189.632 44.5051 189.905 39.7264 188.813C39.6581 189.7 39.624 190.588 39.624 191.475C39.624 196.459 40.6821 200.657 42.7984 204.07C45.1877 208.098 49.0789 210.112 54.472 210.112C54.2672 211.409 53.1408 212.058 51.0928 212.058C45.6315 212.058 41.6037 209.805 39.0096 205.299C36.4837 200.794 35.2208 195.469 35.2208 189.325C35.2208 188.642 35.2208 187.994 35.2208 187.379C29.3499 184.853 25.4587 180.006 23.5472 172.838C22.5915 169.425 22.1136 165.807 22.1136 161.984C22.1136 158.161 22.6597 154.099 23.752 149.798C18.9733 148.706 14.8432 146.726 11.3616 143.859C7.88 140.992 5.38827 137.715 3.8864 134.029C1.90667 129.182 0.9168 124.71 0.9168 120.614C0.9168 116.518 1.56533 112.661 2.8624 109.043C4.15947 105.425 6.0368 102.012 8.4944 98.8032C10.8837 95.5264 14.1264 92.8981 18.2224 90.9184C22.3184 88.8704 26.824 87.8464 31.7392 87.8464C41.4331 87.8464 48.0549 91.6011 51.6048 99.1104C52.0144 99.9296 51.5365 100.476 50.1712 100.749C48.5328 100.885 47.5088 100.51 47.0992 99.6224C45.0512 93.4784 39.8971 90.4064 31.6368 90.4064ZM69.6272 104.435C65.736 104.435 61.7765 105.732 57.7488 108.326C53.7893 110.852 50.1712 114.197 46.8944 118.362C39.9312 127.236 34.8453 137.237 31.6368 148.365H33.0704C46.4507 148.365 57.7147 144.098 66.8624 135.565C72.9381 129.899 76.6587 123.789 78.024 117.235C78.2971 115.802 78.4336 114.505 78.4336 113.344C78.4336 109.794 77.1365 107.234 74.5424 105.664C73.2453 104.845 71.6069 104.435 69.6272 104.435ZM63.3808 153.485C57.8512 153.485 52.7995 156.864 48.2256 163.622C43.72 170.381 40.9552 177.89 39.9312 186.15C41.7061 186.697 43.5835 186.97 45.5632 186.97C53.0725 186.97 59.3872 183.693 64.5072 177.139C68.5349 172.087 70.5488 167.104 70.5488 162.189C70.5488 157.274 68.7739 154.441 65.224 153.69C64.6779 153.553 64.0635 153.485 63.3808 153.485ZM88.4922 184.102C83.0991 184.102 80.4026 180.041 80.4026 171.917C80.4026 167.206 81.6314 162.052 84.089 156.454C87.5023 148.877 91.8373 143.927 97.0938 141.606C98.937 140.855 100.78 140.48 102.623 140.48C104.535 140.48 106.037 141.026 107.129 142.118C108.221 143.211 108.767 144.439 108.767 145.805C108.767 146.419 108.426 146.726 107.743 146.726C107.129 146.658 106.822 146.317 106.822 145.702C106.822 145.088 106.48 144.542 105.798 144.064C105.183 143.518 104.262 143.245 103.033 143.245C98.7322 143.245 94.841 147.102 91.3594 154.816C88.0826 161.984 86.4442 168.777 86.4442 175.194C86.4442 179.153 87.2975 181.133 89.0042 181.133C90.7791 181.133 92.8954 179.665 95.353 176.73C97.8789 173.726 100.2 170.244 102.316 166.285C106.89 157.956 109.587 152.597 110.406 150.208C111.225 147.819 112.112 146.624 113.068 146.624C114.775 146.624 115.628 148.058 115.628 150.925C115.628 151.812 115.526 152.836 115.321 153.997C113.068 164.919 111.839 171.234 111.635 172.941C111.498 174.647 111.43 175.876 111.43 176.627C111.43 179.904 112.215 181.542 113.785 181.542C115.56 181.542 118.052 179.187 121.26 174.477C124.469 169.766 127.234 165.056 129.555 160.346L133.036 153.28H135.801C135.391 154.099 134.845 155.226 134.163 156.659C133.548 158.025 132.285 160.516 130.374 164.134C128.462 167.684 126.619 170.825 124.844 173.555C123.138 176.286 121.192 178.778 119.007 181.03C116.891 183.215 115.048 184.307 113.478 184.307C108.426 184.307 105.9 180.621 105.9 173.248C105.9 170.79 106.173 167.923 106.719 164.646H106.003C99.0394 177.617 93.2026 184.102 88.4922 184.102ZM131.339 184C129.428 184 128.472 182.532 128.472 179.597C128.472 178.027 130.383 166.592 134.206 145.293C134.411 143.859 135.025 143.142 136.049 143.142C137.278 143.142 138.2 144.03 138.814 145.805C139.156 146.761 139.326 147.819 139.326 148.979C139.326 150.071 139.19 151.266 138.917 152.563L137.278 160.755H137.893C144.037 146.965 149.908 140.07 155.505 140.07C157.69 140.07 159.362 140.753 160.523 142.118C161.684 143.415 162.264 145.225 162.264 147.546C162.264 149.867 161.342 154.884 159.499 162.598C157.656 170.313 156.734 175.671 156.734 178.675C156.734 183.113 157.553 185.331 159.192 185.331C159.192 185.809 158.885 186.287 158.27 186.765C157.656 187.243 156.939 187.482 156.12 187.482C152.16 187.482 150.181 184.375 150.181 178.163C150.181 174.34 151.205 168.572 153.253 160.858C155.369 153.075 156.427 148.126 156.427 146.01C156.427 143.825 155.574 142.733 153.867 142.733C151.409 142.733 148.44 145.941 144.958 152.358C141.545 158.775 138.78 164.919 136.664 170.79C134.616 176.593 133.421 180.245 133.08 181.747C132.807 183.249 132.226 184 131.339 184ZM171.633 139.251C171.633 138.5 172.111 138.125 173.066 138.125H178.391C178.733 136.759 179.176 135.053 179.722 133.005L181.156 127.68C181.566 126.11 181.907 124.676 182.18 123.379C182.521 122.082 183.136 121.434 184.023 121.434C185.184 121.434 186.003 122.321 186.481 124.096C186.686 124.847 186.788 125.769 186.788 126.861C186.788 127.953 186.583 129.353 186.174 131.059L184.228 138.125H190.577C191.191 138.125 191.601 138.33 191.806 138.739C192.079 139.149 192.079 139.558 191.806 139.968C191.601 140.309 191.191 140.48 190.577 140.48H183.614C179.381 156.386 177.265 167.65 177.265 174.272C177.265 179.119 178.357 181.542 180.542 181.542C182.317 181.542 184.808 179.187 188.017 174.477C191.225 169.766 193.99 165.056 196.311 160.346L199.793 153.28H202.558C202.148 154.099 201.602 155.226 200.919 156.659C200.305 158.025 199.042 160.516 197.13 164.134C195.219 167.684 193.376 170.825 191.601 173.555C189.894 176.286 187.949 178.778 185.764 181.03C183.648 183.215 181.668 184.307 179.825 184.307C177.982 184.307 176.377 183.727 175.012 182.566C173.715 181.338 172.896 179.631 172.554 177.446C172.145 175.194 171.94 172.907 171.94 170.586C171.94 165.193 173.851 155.157 177.674 140.48H173.066C172.52 140.48 172.145 140.343 171.94 140.07C171.735 139.729 171.633 139.456 171.633 139.251ZM210.707 122.662C212.277 122.662 213.062 123.721 213.062 125.837C213.062 127.953 212.038 129.66 209.99 130.957C208.966 131.639 208.079 131.981 207.328 131.981C206.235 131.981 205.587 131.639 205.382 130.957L205.28 130.65C205.894 130.65 206.338 130.001 206.611 128.704C206.884 127.339 207.293 126.007 207.84 124.71C208.454 123.345 209.41 122.662 210.707 122.662ZM204.153 181.542C205.928 181.542 208.42 179.187 211.628 174.477C214.837 169.766 217.602 165.056 219.923 160.346L223.404 153.28H226.169C225.76 154.099 225.213 155.226 224.531 156.659C223.916 158.025 222.653 160.516 220.742 164.134C218.831 167.684 216.987 170.825 215.212 173.555C213.506 176.286 211.56 178.778 209.376 181.03C207.259 183.215 205.416 184.307 203.846 184.307C198.794 184.307 196.268 181.03 196.268 174.477C196.268 169.562 197.668 161.574 200.467 150.515C200.74 149.355 200.945 148.467 201.081 147.853C201.286 147.238 201.491 146.453 201.696 145.498C201.9 144.474 202.105 143.552 202.31 142.733C202.651 141.299 203.266 140.582 204.153 140.582C205.382 140.582 206.269 141.47 206.816 143.245C207.089 144.064 207.225 145.054 207.225 146.214C207.225 147.375 207.089 148.604 206.816 149.901C206.543 151.13 206.099 152.973 205.484 155.43C204.87 157.888 204.392 159.902 204.051 161.472C203.709 163.042 203.334 164.954 202.924 167.206C202.173 170.961 201.798 174.306 201.798 177.242C201.798 180.109 202.583 181.542 204.153 181.542ZM245.676 119.795C248.133 113.378 249.362 109.009 249.362 106.688C249.362 104.367 248.782 103.138 247.621 103.002C244.413 103.002 241.068 108.156 237.586 118.464C234.173 128.704 231.476 139.354 229.496 150.413C227.585 161.404 226.629 169.186 226.629 173.76C226.629 181.474 228.541 185.331 232.364 185.331C232.364 185.809 232.056 186.287 231.442 186.765C230.828 187.243 230.111 187.482 229.292 187.482C223.694 187.482 220.895 182.464 220.895 172.429C220.895 168.742 221.577 163.11 222.943 155.533C224.308 147.887 226.083 139.9 228.268 131.571C230.452 123.243 233.285 116.006 236.767 109.862C240.248 103.65 243.798 100.544 247.416 100.544C250.284 100.544 251.717 102.353 251.717 105.971C251.717 108.702 250.864 112.525 249.157 117.44C245.88 126.997 241.17 136.555 235.026 146.112C233.388 148.638 231.92 150.686 230.623 152.256C230.281 152.666 230.111 152.529 230.111 151.846C230.043 150.549 230.35 149.423 231.032 148.467C236.63 140.07 241.511 130.513 245.676 119.795ZM269.926 119.795C272.383 113.378 273.612 109.009 273.612 106.688C273.612 104.367 273.032 103.138 271.871 103.002C268.663 103.002 265.318 108.156 261.836 118.464C258.423 128.704 255.726 139.354 253.746 150.413C251.835 161.404 250.879 169.186 250.879 173.76C250.879 181.474 252.791 185.331 256.614 185.331C256.614 185.809 256.306 186.287 255.692 186.765C255.078 187.243 254.361 187.482 253.542 187.482C247.944 187.482 245.145 182.464 245.145 172.429C245.145 168.742 245.827 163.11 247.193 155.533C248.558 147.887 250.333 139.9 252.518 131.571C254.702 123.243 257.535 116.006 261.017 109.862C264.498 103.65 268.048 100.544 271.666 100.544C274.534 100.544 275.967 102.353 275.967 105.971C275.967 108.702 275.114 112.525 273.407 117.44C270.13 126.997 265.42 136.555 259.276 146.112C257.638 148.638 256.17 150.686 254.873 152.256C254.531 152.666 254.361 152.529 254.361 151.846C254.293 150.549 254.6 149.423 255.282 148.467C260.88 140.07 265.761 130.513 269.926 119.795ZM274.105 170.483C274.105 177.651 276.017 181.235 279.84 181.235C282.434 181.235 284.857 179.631 287.11 176.422C291.411 170.415 294.039 162.496 294.995 152.666C292.605 151.642 290.933 149.969 289.977 147.648C289.363 146.214 289.056 145.02 289.056 144.064C289.056 143.04 289.192 142.153 289.465 141.402C290.08 139.558 291.206 138.637 292.844 138.637C294.483 138.637 295.712 139.695 296.531 141.811C297.418 143.859 297.862 146.487 297.862 149.696C297.862 149.901 297.862 150.14 297.862 150.413C298.681 150.686 299.876 150.822 301.446 150.822C303.084 150.822 304.518 150.174 305.747 148.877C306.976 147.58 307.59 146.385 307.59 145.293C307.59 145.02 307.761 144.849 308.102 144.781C308.443 144.644 308.751 144.644 309.024 144.781C309.365 144.917 309.536 145.122 309.536 145.395C309.536 147.375 308.682 149.252 306.976 151.027C305.337 152.802 303.119 153.69 300.32 153.69C299.637 153.69 298.749 153.621 297.657 153.485C297.248 158.127 296.258 162.735 294.688 167.309C293.186 171.814 291.069 175.74 288.339 179.085C285.608 182.362 282.673 184 279.532 184C273.593 184 269.941 180.826 268.576 174.477C268.234 172.634 268.064 170.756 268.064 168.845C268.064 164.544 269.053 159.936 271.033 155.021C273.627 148.604 276.836 144.61 280.659 143.04C282.639 142.357 284.004 142.255 284.755 142.733C285.506 143.211 285.984 143.757 286.188 144.371C283.048 144.371 280.249 147.307 277.792 153.178C275.334 159.049 274.105 164.817 274.105 170.483Z" stroke="black" stroke-linecap="round" stroke-linejoin="round"/>
</svg>
