<svg width="10" height="8" viewBox="0 0 10 8" fill="currentColor" xmlns="http://www.w3.org/2000/svg">
  <path d="M0.00212613 5.54464C0.00212613 6.64361 1.06786 7.53445 2.38256 7.53445C3.69729 7.53445 4.76302 6.64361 4.76302 5.54464C4.76302 4.44567 3.69729 3.55485 2.38256 3.55485C2.11237 3.55485 1.85373 3.59422 1.61161 3.6636C2.14731 1.09541 4.54318 -0.56078 2.32222 0.802298C-0.140499 2.3138 -0.000511431 5.48383 0.00224423 5.54193C0.00224423 5.54283 0.00212613 5.54364 0.00212613 5.54464Z" fill="#E8E8E8" />
  <path d="M5.23907 5.54452C5.23907 6.64349 6.3048 7.53433 7.61953 7.53433C8.93425 7.53433 9.99999 6.64349 9.99999 5.54452C9.99999 4.44555 8.93423 3.55472 7.61951 3.55472C7.3493 3.55472 7.09068 3.5941 6.84855 3.66348C7.38425 1.09529 9.78012 -0.560902 7.55916 0.802176C5.09644 2.31368 5.23641 5.48371 5.23919 5.5418C5.23919 5.54271 5.23907 5.54352 5.23907 5.54452Z" fill="#E8E8E8" />
</svg>
